HIERARCHY
ROOT Hips
{
	OFFSET 0.000000 0.000000 0.000000 
	CHANNELS 6 Xposition Yposition Zposition Zrotation Yrotation Xrotation
	JOINT LeftUpLeg
	{
		OFFSET 1.363060 -1.794630 0.839290 
		CHANNELS 3 Zrotation Yrotation Xrotation
		JOINT LeftLeg
		{
			OFFSET 2.448110 -6.726130 0.000000 
			CHANNELS 3 Zrotation Yrotation Xrotation
			JOINT LeftFoot
			{
				OFFSET 2.562200 -7.039590 0.000000 
				CHANNELS 3 Zrotation Yrotation Xrotation
				JOINT LeftToeBase
				{
					OFFSET 0.157640 -0.433110 2.322550 
					CHANNELS 3 Zrotation Yrotation Xrotation
					End Site
					{
						OFFSET 0.000000 0.000000 0.000000 
					}
				}
			}
		}
	}
	JOINT RightUpLeg
	{
		OFFSET -1.305520 -1.794630 0.839290 
		CHANNELS 3 Zrotation Yrotation Xrotation
		JOINT RightLeg
		{
			OFFSET -2.542530 -6.985550 0.000000 
			CHANNELS 3 Zrotation Yrotation Xrotation
			JOINT RightFoot
			{
				OFFSET -2.568260 -7.056230 0.000000 
				CHANNELS 3 Zrotation Yrotation Xrotation
				JOINT RightToeBase
				{
					OFFSET -0.164730 -0.452590 2.363150 
					CHANNELS 3 Zrotation Yrotation Xrotation
					End Site
					{
						OFFSET 0.000000 0.000000 0.000000 
					}
				}
			}
		}
	}
	JOINT Spine
	{
		OFFSET 0.028270 2.035590 -0.193380 
		CHANNELS 3 Zrotation Yrotation Xrotation
		JOINT Spine1
		{
			OFFSET 0.056720 2.048850 -0.042750 
			CHANNELS 3 Zrotation Yrotation Xrotation
			JOINT Neck1
			{
				OFFSET -0.054170 1.746240 0.172020 
				CHANNELS 3 Zrotation Yrotation Xrotation
				JOINT Head
				{
					OFFSET 0.104070 1.761360 -0.123970 
					CHANNELS 3 Zrotation Yrotation Xrotation
					End Site
					{
						OFFSET 0.000000 0.000000 0.000000 
					}
				}
			}
			JOINT LeftArm
			{
				OFFSET 3.362410 1.200890 -0.311210 
				CHANNELS 3 Zrotation Yrotation Xrotation
				JOINT LeftForeArm
				{
					OFFSET 4.983000 -0.000000 -0.000000 
					CHANNELS 3 Zrotation Yrotation Xrotation
					JOINT LeftHand
					{
						OFFSET 3.483560 -0.000000 -0.000000 
						CHANNELS 3 Zrotation Yrotation Xrotation
						JOINT LeftHandIndex1
						{
							OFFSET 0.715260 -0.000000 -0.000000 
							CHANNELS 3 Zrotation Yrotation Xrotation
							End Site
							{
								OFFSET 0.000000 0.000000 0.000000 
							}
						}
					}
				}
			}
			JOINT RightArm
			{
				OFFSET -3.136600 1.374050 -0.404650 
				CHANNELS 3 Zrotation Yrotation Xrotation
				JOINT RightForeArm
				{
					OFFSET -5.241900 -0.000000 -0.000000 
					CHANNELS 3 Zrotation Yrotation Xrotation
					JOINT RightHand
					{
						OFFSET -3.444170 -0.000000 -0.000000 
						CHANNELS 3 Zrotation Yrotation Xrotation
						JOINT RightHandIndex1
						{
							OFFSET -0.622530 -0.000000 -0.000000 
							CHANNELS 3 Zrotation Yrotation Xrotation
							End Site
							{
								OFFSET 0.000000 0.000000 0.000000 
							}
						}
					}
				}
			}
		}
	}
}
MOTION
Frames: 15
Frame Time: 0.041667
6.198584 15.979473 5.195843 -174.199224 -39.510179 -176.178709 -20.633803 20.627620 -66.845244 17.422679 21.085264 82.806864 0.916156 -10.201907 5.847403 2.309700 -9.483300 -27.319200 28.387825 -22.049729 -53.563989 -16.189812 -20.592941 78.746964 -0.382955 1.942813 -3.076668 -0.003600 0.385500 -1.059300 0.496264 3.941094 -1.318038 5.014204 -0.146809 -1.180582 10.817789 -9.477457 -2.901708 12.290700 -2.760900 -3.373700 -32.759784 -13.919637 -18.510823 65.241058 -53.859160 -51.220026 0.256035 -2.399195 -23.974866 -7.125000 0.000000 0.000000 62.590336 4.062058 -14.169047 -17.940856 30.012086 -8.277943 2.244274 -0.753731 -23.406648 7.125000 0.000000 0.000000 
6.418867 15.912330 5.023078 -173.634162 -39.095798 -176.569835 -20.601442 20.028601 -66.758544 17.342018 21.121670 82.741298 0.937887 -11.524834 8.523162 2.297300 -9.459700 -27.244100 26.575986 -21.025611 -52.281946 -15.722220 -20.499539 77.352092 -0.274917 0.909104 -4.104763 -0.005300 -0.467900 1.285800 0.531676 3.993468 -1.304715 5.263742 -0.192859 -1.079777 10.882119 -9.402074 -3.014474 12.240000 -2.733000 -3.300600 -33.235507 -13.684061 -18.886126 65.930938 -54.093002 -52.005568 0.287152 -2.423807 -23.800718 -7.125000 0.000000 0.000000 62.924651 5.020848 -15.917730 -16.944830 28.765280 -7.631270 2.242689 -0.850352 -21.841932 7.125000 0.000000 0.000000 
6.636835 15.843533 4.850644 -172.903690 -38.642086 -177.118978 -20.240853 19.436520 -66.358100 17.085103 21.130509 82.153630 0.959350 -12.430350 11.553086 2.486400 -9.813100 -28.373600 24.786921 -19.961033 -50.823202 -15.184055 -20.376530 75.754748 -0.140637 -0.278285 -5.271990 -0.039500 -1.282200 3.525600 0.569082 4.196302 -1.285099 5.439804 -0.159890 -1.021834 10.984327 -9.463390 -3.209048 12.312900 -2.734300 -3.284700 -33.836016 -13.857050 -19.137126 66.574609 -54.292784 -52.622394 0.304013 -2.411113 -23.639880 -7.125000 0.000000 0.000000 63.134251 5.843893 -18.014788 -16.062244 27.584599 -7.076494 2.253074 -0.924194 -20.580633 7.125000 0.000000 0.000000 
6.842455 15.768120 4.674902 -172.278047 -38.101961 -177.704952 -19.733747 18.894493 -65.551288 16.659604 21.106375 81.070085 1.017048 -12.838636 15.045127 2.335600 -9.532600 -27.476100 22.912955 -19.008899 -49.193623 -14.603673 -20.208251 74.002711 0.129332 -2.157230 -6.459464 -0.005000 -0.457700 1.257500 0.597639 4.421790 -1.269350 5.467845 -0.104933 -1.014753 10.913423 -9.418035 -3.356232 12.162300 -2.722200 -3.322100 -34.496227 -14.114475 -19.328804 67.181779 -54.472511 -53.159033 0.313509 -2.383656 -23.429181 -7.125000 0.000000 0.000000 63.229296 6.415132 -19.828091 -15.311849 26.554167 -6.618431 2.283160 -0.972836 -20.085801 7.125000 0.000000 0.000000 
7.043665 15.684880 4.498058 -171.647495 -37.533321 -178.223745 -19.128161 18.367409 -64.625737 16.122511 21.049747 79.645305 1.137146 -13.036397 18.624686 2.052900 -8.975300 -25.718200 20.991871 -17.948911 -47.844014 -13.996261 -20.021314 72.143403 0.494658 -4.274143 -7.236401 -0.001800 0.274400 -0.753900 0.632174 4.450023 -1.266784 5.539317 -0.152252 -0.956751 10.765873 -8.917788 -3.344807 11.809300 -2.567300 -3.310200 -35.082231 -13.918307 -19.819205 67.922502 -54.712397 -53.965588 0.339853 -2.395701 -23.379008 -7.125000 0.000000 0.000000 63.421321 7.225927 -21.210382 -14.682129 25.629858 -6.225249 2.290665 -1.032120 -19.751055 7.125000 0.000000 0.000000 
7.245316 15.577605 4.320332 -170.970524 -36.936437 -178.658850 -18.461287 17.830867 -63.752102 15.563407 20.969722 78.133108 1.329159 -13.102665 22.346941 0.059300 -1.571100 -4.321600 19.372029 -17.012667 -46.802623 -13.350985 -19.793708 70.073715 1.280437 -8.042499 -7.285315 -0.352700 3.815400 -10.558000 0.654836 4.806880 -1.297505 5.564837 0.021673 -1.237306 10.992609 -9.166138 -3.518193 12.112900 -2.624700 -3.272500 -36.166769 -14.148520 -19.476482 69.087983 -55.051671 -54.899085 0.353103 -2.333189 -23.500885 -7.125000 0.000000 0.000000 63.577142 7.148153 -22.914798 -14.381598 25.101748 -6.032107 2.288071 -1.053904 -19.556824 7.125000 0.000000 0.000000 
7.447077 15.473196 4.143378 -170.613573 -36.231540 -178.878951 -18.372392 17.724387 -62.881310 15.288804 20.912708 77.369851 1.297575 -13.308359 21.445843 2.302200 9.469000 27.273800 17.394265 -15.994054 -45.657737 -12.653779 -19.518202 67.830127 1.804623 -10.350195 -7.271865 -0.432900 4.222100 -11.702400 0.675658 5.037058 -1.323024 5.767138 0.103316 -1.406212 11.187659 -9.229564 -3.589705 12.320300 -2.622400 -3.140700 -37.330379 -14.301712 -19.456886 70.112375 -55.334705 -55.772700 0.366591 -2.284928 -23.265714 -7.125000 0.000000 0.000000 63.890089 7.072370 -23.708026 -14.306253 24.901895 -5.958221 2.280217 -1.076440 -19.290087 7.125000 0.000000 0.000000 
7.641561 15.400981 3.975133 -170.342908 -35.498070 -179.082964 -18.082194 17.646352 -62.036453 15.377665 20.898735 77.125232 1.058262 -11.474116 7.024258 0.005000 -0.458100 -1.258800 15.331850 -14.987528 -44.313535 -11.849232 -19.166559 65.331241 1.983652 -11.143034 -7.866769 -0.082800 1.856600 -5.109500 0.716920 5.176500 -1.326815 6.069678 0.087438 -1.425070 10.968900 -8.912490 -3.598554 12.022400 -2.504700 -3.093000 -38.630879 -14.519042 -19.707174 70.989695 -55.562966 -56.550558 0.368661 -2.234897 -22.775705 -7.125000 0.000000 0.000000 64.077535 7.006438 -23.792173 -14.381033 24.927879 -5.958002 2.291794 -1.043734 -19.381756 7.125000 0.000000 0.000000 
7.838581 15.328766 3.812622 -169.691352 -34.836383 -179.545161 -17.186442 17.469511 -61.289089 15.453989 20.894270 77.020164 0.845193 -7.046435 1.935792 0.015000 -0.791000 -2.174000 13.837016 -14.120141 -43.065133 -11.011958 -18.760369 62.655200 2.432643 -12.934107 -7.955020 -0.038100 1.259600 -3.463400 0.764645 5.375676 -1.327452 5.964464 0.103787 -1.389785 10.284795 -8.039345 -3.530365 11.047300 -2.253500 -3.173600 -39.665043 -14.878252 -19.869710 71.838845 -55.765714 -57.272746 0.372141 -2.187942 -22.513990 -7.125000 0.000000 0.000000 64.476302 6.798191 -23.848385 -14.667876 25.201958 -6.063011 2.285888 -0.944116 -20.022521 7.125000 0.000000 0.000000 
8.043981 15.213553 3.650000 -169.078846 -34.294048 -179.934825 -15.869062 16.835539 -60.184993 15.209163 20.841191 76.160024 1.171837 -7.936812 -2.865398 0.049800 -1.440700 -3.962300 12.385130 -13.335562 -42.035990 -10.239724 -18.331860 60.077494 2.955624 -14.890471 -7.733554 -0.018600 0.881300 -2.422200 0.804485 5.592150 -1.343528 5.951083 0.152382 -1.519595 10.037055 -7.836911 -3.692231 10.641500 -2.218400 -3.215800 -40.591431 -15.220899 -19.863505 72.641053 -55.944172 -57.927195 0.380080 -2.145323 -22.472117 -7.125000 0.000000 0.000000 65.006694 6.218369 -23.584099 -15.212773 25.816865 -6.318359 2.267521 -0.829315 -21.204058 7.125000 0.000000 0.000000 
8.247616 15.116421 3.493222 -168.821707 -33.882143 179.929838 -14.555845 16.147718 -59.369396 15.074333 20.816369 75.613926 1.621835 -10.360224 -5.563561 0.440100 4.256900 11.800600 10.703997 -12.725977 -40.995773 -9.460503 -17.837173 57.455425 3.274668 -15.994306 -7.897533 -0.022300 -0.963100 2.647400 0.846023 5.588983 -1.346094 6.126819 0.077010 -1.496415 9.981117 -7.394065 -3.877588 10.408400 -2.068300 -3.257000 -41.387973 -15.443796 -20.174553 73.208728 -56.068746 -58.448799 0.387489 -2.122668 -22.386533 -7.125000 0.000000 0.000000 65.656372 6.271396 -23.606445 -15.688612 26.289569 -6.529319 2.223745 -0.800860 -21.469114 7.125000 0.000000 0.000000 
8.455882 15.025243 3.331482 -168.779024 -33.518291 179.863843 -13.121736 15.527070 -58.641768 15.053945 20.818102 75.409088 1.643774 -8.518678 -8.271175 0.035500 1.216500 3.344600 8.960820 -12.239751 -39.987041 -8.739973 -17.324982 54.949528 3.569558 -16.969217 -8.166702 -0.156700 -2.550300 7.029200 0.872101 5.300394 -1.308470 6.357927 -0.144394 -1.283083 10.114725 -6.577554 -4.266746 10.374300 -1.748900 -3.592600 -42.113741 -15.380221 -20.974623 74.042042 -56.355645 -59.322351 0.411766 -2.128216 -22.206620 -7.125000 0.000000 0.000000 66.781986 7.918972 -24.826553 -15.763258 26.121925 -6.489236 2.125370 -0.911581 -19.525923 7.125000 0.000000 0.000000 
8.679032 14.932521 3.157725 -169.164934 -33.170373 179.946730 -11.787553 14.918158 -57.950703 15.119565 20.845163 75.510081 1.590504 -6.999582 -9.892234 0.053200 -1.489000 -4.095300 7.006633 -11.723738 -38.948237 -8.067391 -16.778648 52.486345 3.880195 -17.949481 -8.384474 -0.284000 -3.427500 9.471200 0.896516 5.325061 -1.287661 6.537822 -0.232528 -1.123607 9.788148 -6.338391 -4.410106 9.834700 -1.722800 -3.488200 -43.640676 -15.588773 -20.860347 75.750989 -56.823957 -60.772172 0.423920 -2.055490 -22.192666 -7.125000 0.000000 0.000000 67.539427 7.903751 -24.763937 -16.365187 26.755242 -6.765271 2.083135 -0.873432 -19.815931 7.125000 0.000000 0.000000 
8.909899 14.853911 2.974928 -170.018049 -32.848414 -179.753735 -10.860069 14.464859 -57.419267 15.213540 20.881606 75.745116 1.496795 -6.060097 -10.330034 0.236000 -3.126800 -8.631800 4.993561 -11.448785 -38.079202 -7.539464 -16.236175 50.145700 4.521412 -19.979006 -7.342792 -0.032500 -1.163700 3.199300 0.894202 5.301588 -1.236966 6.939234 -0.344427 -0.970253 9.937520 -5.948602 -4.670956 9.963600 -1.537800 -3.703800 -44.448108 -16.353948 -20.577832 75.806198 -56.769958 -60.674999 0.398747 -1.987768 -22.411866 -7.125000 0.000000 0.000000 68.311871 7.833741 -24.161816 -16.986211 27.476197 -7.068025 2.056767 -0.816586 -20.517725 7.125000 0.000000 0.000000 
9.142421 14.791729 2.787058 -171.019687 -32.570956 -179.478084 -10.206631 14.398950 -57.051803 15.346399 20.906811 76.085425 1.450424 -5.886714 -10.111013 0.463200 -4.365300 -12.106800 2.922658 -11.146015 -37.061387 -7.027320 -15.692052 47.983357 4.811126 -20.781903 -7.349772 -0.017400 -0.851000 2.339000 0.878251 5.299515 -1.185188 7.429016 -0.435108 -0.844887 10.348264 -5.561755 -4.739049 10.594600 -1.246900 -3.818000 -45.187107 -17.300924 -20.002189 75.449883 -56.580050 -60.135049 0.369889 -1.914612 -22.927739 -7.125000 0.000000 0.000000 69.021071 7.765562 -23.876733 -17.440632 28.004654 -7.292857 2.018918 -0.807285 -20.446584 7.125000 0.000000 0.000000 
